<?xml version="1.0" encoding="UTF-8"?>
<svg version="1.0" viewBox="0 0 438 127" xmlns="http://www.w3.org/2000/svg" style="transform: rotate(-90deg)">
<g fill="none" stroke="#000">
<path d="m11.5 125.5h423.5"/>
<path d="m11.5 116.5h423.5"/>
<path d="m11.5 108.5h423.5"/>
<path d="m11.5 99.5h423.5"/>
<path d="m11.5 90.5h423.5"/>
<path d="m11.5 54.5h423.5"/>
<path d="m11.5 45.5h423.5"/>
<path d="m11.5 36.5h423.5"/>
<path d="m11.5 27.5h423.5"/>
<path d="m11.5 18.5h423.5"/>
</g>
<path d="m29.782 1.081c-0.06747 0.035497-0.31008 0.28397-0.5527 0.53423-2.4738 2.5096-3.9837 5.6919-4.3679 9.2274-0.067297 0.60344-0.067297 2.0535-0.033649 3.0101 0.1415 3.5692 0.68747 6.2528 2.103 10.814l0.16859 0.63894-0.99755 1.3098c-3.2287 4.2081-4.4691 6.0806-5.5341 8.3471-1.065 2.2611-1.5839 4.3129-1.6514 6.5793-0.10112 4.1318 1.6852 8.0294 4.8801 10.463 2.6155 2.0162 5.7767 2.8344 9.1806 2.3357 0.27644-0.033722 0.51905-0.069219 0.51905-0.033722v1.7322c0 3.9597-0.24262 5.6227-1.065 7.3567-0.51888 1.0951-1.1391 1.9062-1.894 2.4741-0.85606 0.67266-1.7188 0.95664-2.7839 0.95664-1.2065 0-2.2715-0.35319-3.2354-1.0951-0.30336-0.21476-0.82241-0.74898-1.0314-1.0614l-0.16842-0.21476 0.13477 0.069219c1.1729 0.42419 2.6827-0.10294 3.4781-1.198 0.64709-0.88742 0.82241-1.9843 0.47867-3.1486-0.4112-1.4838-1.5504-2.4741-2.9592-2.5433-1.3413-0.042596-2.7164 0.63007-3.4377 1.8015-0.54597 0.88032-0.68747 1.9417-0.37738 3.3207 0.37738 1.837 1.5503 3.4663 3.1951 4.4584 1.0718 0.67266 2.3388 1.0614 3.6128 1.1306 2.2715 0.069219 4.2668-1.0259 5.7092-3.2178 0.9639-1.4838 1.5099-3.1823 1.6514-5.2677 0.13494-1.3808 0.13494-1.9843 0.16859-3.9597v-2.018l0.34373-0.14554c1.4088-0.56085 2.6153-1.4838 3.6467-2.7936 1.7525-2.2256 2.339-5.1577 1.6177-8.0205-0.65382-2.6569-2.3727-4.9163-4.6779-6.0877-1.0988-0.56262-2.1706-0.8466-3.4377-0.91582l-0.58652-0.040821-0.13477-0.59635c-0.41793-1.5264-1.2065-4.1389-1.9953-6.6485l-0.17515-0.49873 0.58635-0.81288c2.4401-3.216 3.7814-5.5872 4.6442-7.9584 0.78876-2.2256 1.065-4.5613 0.78876-6.684-0.47867-3.8532-2.5816-8.6239-4.9139-11.21-0.41793-0.45791-0.62017-0.56085-0.89644-0.38869zm2.13 5.1311c0.067297 0.10472 0.62 1.2335 0.78859 1.6222 0.17515 0.49873 0.34373 1.2069 0.45158 1.7748 0.067469 0.59635 0.067469 2.5788 0 3.1823-0.37738 3.3207-1.5841 6.219-4.1994 9.9693-0.23589 0.35319-0.4785 0.70816-0.57962 0.8466l-0.17532 0.21476-0.10112-0.38869c-0.62017-1.9825-1.2402-4.4921-1.4424-5.9422-0.10785-0.70639-0.10785-2.0517-0.033821-2.7581 0.31009-2.3375 1.0988-4.2774 2.5076-6.0806 0.34374-0.46501 1.1661-1.3098 1.6177-1.6648 0.34374-0.28397 1.065-0.8111 1.0987-0.8111 0 0 0.033649 0.035497 0.06747 0.035497zm-3.0603 24.509c0.78859 2.5096 1.5504 5.234 1.5166 5.2677 0 0-0.17515 0.069218-0.31009 0.069218-0.45158 0.10472-1.2065 0.35497-1.6177 0.56972-0.75494 0.38692-1.3413 0.7756-1.9278 1.379-1.7861 1.8725-2.44 4.6661-1.6514 7.1757 0.31009 1.0614 0.89644 2.018 1.6852 2.8291 0.62017 0.63717 1.2402 1.0951 2.103 1.5175 0.4112 0.21476 0.47867 0.21476 0.68764 0.21476 0.20224 0 0.23589 0 0.37738-0.10294 0.20224-0.14554 0.34373-0.42951 0.34373-0.67266-0.033648-0.31947-0.1415-0.42241-0.58635-0.70816-2.13-1.2406-3.1613-3.2923-2.5816-5.3369 0.41793-1.5264 1.6852-2.6569 3.4377-3.0438 0.35046-0.10472 0.99755-0.18103 1.0379-0.14554 0 0 0.13494 0.49873 0.34391 1.4909 0.64709 2.7581 1.0987 5.3369 1.3749 7.8128 0.20224 1.553 0.37756 3.6402 0.30336 3.7165-0.033648 0.033722-0.72112 0.13844-1.3751 0.17216-2.1299 0.13844-3.9498-0.21476-5.7765-1.1643-1.0314-0.53423-1.8536-1.1714-2.6424-1.9488-1.2738-1.3436-1.9951-2.8273-2.1704-4.4921-0.067298-0.45791-0.033649-1.5175 0.033821-2.1902 0.38411-3.1486 1.6177-6.0806 4.1994-9.7616 0.72112-1.0614 2.75-3.7786 2.8175-3.7786l0.37738 1.1306zm4.6442 9.1919c2.6491 0.60344 4.6038 2.7936 5.0891 5.6227 0.033821 0.25025 0.033821 0.53423 0.033821 1.0614 0 0.63717 0 0.7756-0.06747 1.1643-0.074199 0.28398-0.1415 0.63717-0.20897 0.78448-0.4112 1.2335-1.3076 2.4741-2.339 3.1805-0.37738 0.27865-1.0987 0.63184-1.1323 0.59635 0-0.033722-0.033648-0.24138-0.033648-0.45613-0.10785-1.3808-0.4112-4.0289-0.72129-5.9084-0.27644-1.7677-0.86279-4.769-1.1729-6.0096l-0.06747-0.17394 0.10112 0.035497c0.06747 0 0.27644 0.033722 0.51905 0.10294z" fill-rule="evenodd" stroke-miterlimit="10" stroke-width="0"/>
<path d="m7.3563 18.76c-1.1998 1.5885-2.9186 5.305-3.6063 7.2449-1.0312 4.0697-1.3749 9.0197-1.0312 13.798 0.16842 1.5867 0.51232 5.1222 1.0312 7.9513 0.85606 6.7249 1.0314 9.554 1.0314 12.383-0.17532 4.5968-1.3751 8.3045-3.2691 10.78-0.34391 0.35319-0.51232 0.70639-0.51232 0.88742 0 0.18103 0.16842 0.53423 0.51232 0.88742 1.894 2.4759 3.0938 6.1835 3.2691 10.608 0 3.0013-0.17532 5.8303-1.0314 12.374-0.51888 3.0101-0.86279 6.5456-1.0312 7.9602-0.34373 4.95 0 9.9001 1.0312 13.789 0.85606 3.1823 3.95 8.6665 4.8128 8.6665 0.34373 0 0.68747-0.3532 0.68747-0.70816 0-0.17926-0.34373-0.70639-0.68747-1.2406-2.0626-3.0012-2.9254-6.0096-3.2691-10.606 0-2.8291 0.17515-5.4843 1.0312-12.202 0.34373-2.6481 0.68764-5.8304 0.86279-7.0727 0.68764-8.4855-0.68747-15.737-4.1252-21.041-0.51905-0.70816-0.86279-1.4145-0.86279-1.4145s0.34373-0.70639 0.86279-1.4145c3.4377-5.3032 4.8128-12.555 4.1252-21.222-0.17515-1.0614-0.51905-4.2436-0.86279-7.071-0.85606-6.5385-1.0312-9.1937-1.0312-12.023 0.34373-4.5968 1.2065-7.6052 3.2691-10.606 0.68747-1.0614 0.86279-1.4145 0.51905-1.7677-0.51905-0.35497-0.86279-0.18103-1.7256 1.0596z" fill-rule="evenodd" stroke-miterlimit="10" stroke-width="0"/>
<path d="m26.268 90.326c-2.5368 0.26514-4.8412 1.9597-6.0225 4.436-0.52928 1.115-0.79383 2.2299-0.85844 3.4519 0 0.57787 0.032223 0.9161 0.16789 1.3206 0.45822 1.5942 2.072 2.7092 3.718 2.6089 1.5814-0.10538 2.8336-1.4209 3.0595-3.1528 0.10328-0.60506-0.032223-1.3546-0.29694-1.8917-0.69056-1.494-2.4012-2.2707-3.8148-1.7608l-0.26456 0.10028 0.06461-0.20566c0.75517-2.031 2.1753-3.5182 3.8213-3.9635 1.5814-0.40451 3.1563 0.032292 4.3763 1.188 2.1431 2.099 2.9628 6.3345 1.9106 10.058-0.23233 0.74444-0.426 1.3206-0.81978 2.0973-0.79383 1.6605-1.7815 3.0151-3.2983 4.6077-2.0076 2.0327-4.6088 3.9975-8.2946 6.2274-0.69056 0.44529-0.75517 0.51158-0.75517 0.67815 0 0.23964 0.19367 0.4453 0.426 0.4453 0.032223 0 0.12906-0.034 0.20011-0.06629 0.064611-0.04079 0.39378-0.20735 0.72294-0.33992 7.081-3.1528 11.522-6.3005 14.059-9.9921 1.5169-2.2367 2.3043-4.7725 2.3043-7.3815 0-4.6077-2.769-7.6551-7.5393-8.3332-0.9875-0.17166-2.1429-0.20565-2.8658-0.13257zm12.742 2.9743c-0.59389 0.13937-1.0843 0.64416-1.22 1.256-0.22589 0.94839 0.32917 1.8985 1.22 2.0973 1.2522 0.30593 2.3367-0.81072 2.0398-2.0973-0.19367-0.9178-1.1167-1.4872-2.0398-1.256zm0 8.4386c-0.59389 0.13257-1.0843 0.63736-1.22 1.2475-0.22589 0.95008 0.32917 1.9002 1.22 2.1058 1.2522 0.29914 2.3367-0.81752 2.0398-2.1058-0.19367-0.9093-1.1167-1.4872-2.0398-1.2475z" fill-rule="evenodd" stroke-miterlimit="10" stroke-width="0"/>
<path d="m12.25 18v107" fill="none" stroke="#000" stroke-width="1.5px"/>
</svg>
