<?xml version="1.0" encoding="UTF-8"?>
<svg version="1.1" viewBox="0 0 100 100" xmlns="http://www.w3.org/2000/svg">
<path d="m77.926 94.924h-69.709c-1.776 0-3.217-1.44-3.217-3.218v-69.709c0-1.777 1.441-3.217 3.217-3.217h34.854c1.777 0 3.217 1.441 3.217 3.217s-1.441 3.217-3.217 3.217h-31.636v63.275h63.274v-31.638c0-1.777 1.441-3.217 3.217-3.217 1.777 0 3.217 1.441 3.217 3.217v34.855c1e-3 1.778-1.44 3.218-3.217 3.218z"/>
<path d="m94.059 16.034-10.027-10.017c-1.255-1.255-3.292-1.255-4.547 0l-9.062 9.073-35.027 35.026c-0.29 0.29-0.525 0.633-0.686 1.008l-7.496 17.513c-0.526 1.212-0.247 2.617 0.676 3.539 0.622 0.622 1.437 0.944 2.274 0.944 0.429 0 0.858-0.086 1.276-0.257l17.513-7.496c0.375-0.161 0.719-0.397 1.008-0.686l35.026-35.026 9.073-9.062c1.254-1.267 1.254-3.304-1e-3 -4.559zm-57.773 47.756 2.928-6.821 3.893 3.893-6.821 2.928zm10.639-5.169-5.469-5.469 31.551-31.552 5.47 5.469-31.552 31.552zm34.586-34.587-5.469-5.469 5.716-5.716 5.469 5.459-5.716 5.726z"/>
</svg>
