<?xml version="1.0" standalone="no"?>
<svg version="1.0" xmlns="http://www.w3.org/2000/svg"
 width="1280.000000pt" height="640.000000pt" viewBox="0 0 1280.000000 640.000000"
 preserveAspectRatio="xMidYMid meet">
<g transform="translate(0.000000,640.000000) scale(0.100000,-0.100000)"
fill="#000000" stroke="none">
<path d="M0 3205 l0 -1995 6400 0 6400 0 0 1995 0 1995 -6400 0 -6400 0 0
-1995z m690 840 l0 -1135 110 0 110 0 0 -840 0 -840 -445 0 -445 0 0 1975 0
1975 335 0 335 0 0 -1135z m910 0 l0 -1135 115 0 115 0 0 -840 0 -840 -450 0
-450 0 0 840 0 840 115 0 115 0 0 1135 0 1135 220 0 220 0 0 -1135z m1140
-840 l0 -1975 -445 0 -445 0 0 840 0 840 110 0 110 0 0 1135 0 1135 335 0 335
0 0 -1975z m680 845 l0 -1130 115 0 115 0 0 -845 0 -845 -445 0 -445 0 0 1975
0 1975 330 0 330 0 0 -1130z m910 -5 l0 -1135 110 0 110 0 0 -840 0 -840 -440
0 -440 0 0 845 0 845 110 0 110 0 0 1130 0 1130 220 0 220 0 0 -1135z m920 0
l0 -1135 115 0 115 0 0 -840 0 -840 -450 0 -450 0 0 830 c0 457 0 833 0 838 0
4 49 8 110 10 l110 3 0 1134 0 1135 225 0 225 0 0 -1135z m1130 -840 l0 -1975
-440 0 -440 0 0 840 0 840 110 0 110 0 0 1135 0 1135 330 0 330 0 0 -1975z
m702 883 c-2 -601 0 -1112 3 -1135 l6 -43 105 0 104 0 0 -840 0 -840 -440 0
-440 0 0 1975 0 1975 333 0 332 0 -3 -1092z m918 -40 l0 -1133 112 -3 113 -3
-3 -839 -2 -840 -450 0 -450 0 0 840 0 839 118 3 117 3 3 1133 2 1132 220 0
220 0 0 -1132z m1130 -843 l0 -1975 -440 0 -440 0 -2 840 -3 839 110 3 110 3
3 1133 2 1132 330 0 330 0 0 -1975z m692 843 l3 -1133 108 -5 107 -5 0 -835 0
-835 -445 -3 -445 -2 0 1975 0 1975 335 0 335 0 2 -1132z m898 -3 l0 -1135
115 0 115 0 0 -840 0 -840 -440 0 -440 0 0 840 0 840 110 0 110 0 0 1135 0
1135 215 0 215 0 0 -1135z m925 3 l0 -1133 118 -3 117 -3 0 -839 0 -840 -455
0 -455 0 0 840 0 840 110 0 110 0 0 1135 0 1135 228 0 227 0 0 -1132z m1135
-843 l0 -1975 -440 0 -440 0 0 840 0 839 108 3 107 3 3 1133 2 1132 330 0 330
0 0 -1975z"/>
</g>
</svg>
