<?xml version="1.0" encoding="UTF-8"?>
<svg enable-background="new 0 0 122.73 122.88" version="1.1" viewBox="0 0 122.73 122.88" xml:space="preserve" xmlns="http://www.w3.org/2000/svg"><style type="text/css">.st0{fill-rule:evenodd;clip-rule:evenodd;}</style><path class="st0" d="m109.5 113.68h-6.09c-0.4 0-0.73-0.32-0.73-0.72v-43.48-0.1c0-0.9-0.17-1.65-0.49-2.22-0.06-0.11-0.14-0.22-0.2-0.31s-0.16-0.18-0.23-0.27l-0.02-0.02c-0.3-0.3-0.68-0.53-1.12-0.69l-0.25-0.07-0.04-0.01h-0.01c-0.41-0.11-0.88-0.17-1.38-0.17h-0.05-0.08-62.06c-0.89 0-1.62 0.17-2.18 0.49l-0.02 0.01-0.27 0.17-0.04 0.04c-0.09 0.07-0.18 0.15-0.27 0.23l-0.03 0.03c-0.62 0.63-0.92 1.57-0.92 2.82v0.04 43.54c0 0.4-0.33 0.72-0.73 0.72h-9.85c-0.19 0-0.38-0.08-0.51-0.21l-12.06-12.09c-0.18-0.14-0.29-0.36-0.29-0.59v-87.91-0.08c0-0.83 0.15-1.52 0.44-2.07 0.05-0.11 0.11-0.2 0.17-0.29l0.02-0.03c0.07-0.11 0.19-0.18 0.25-0.29l0.01-0.02 0.02-0.02c0.25-0.25 0.57-0.45 0.92-0.59l0.08-0.04 0.18-0.06 0.01-0.01c0.42-0.14 0.9-0.2 1.44-0.21l0.09-0.01h26.21c0.4 0 0.73 0.32 0.73 0.72v28.75c0 0.52 0.05 1.03 0.13 1.5 0.09 0.46 0.15 0.98 0.39 1.34l0.01 0.02v0.01c0.18 0.44 0.42 0.87 0.67 1.25 0.24 0.37 0.56 0.77 0.9 1.13l0.02 0.02v0.01h0.01c0.48 0.5 0.94 1.15 1.62 1.27h0.01 0.01l0.01 0.01 0.32 0.17 0.4 0.18h0.01c0.33 0.14 0.67 0.26 1 0.34h0.01 0.03 0.01 0.03l0.26 0.05c0.45 0.09 0.93 0.14 1.42 0.14h0.02 47.8c1.03 0 1.98-0.18 2.85-0.53l0.01-0.01c0.87-0.36 1.67-0.9 2.39-1.61l0.03-0.03c0.36-0.36 0.69-0.75 0.96-1.16 0.26-0.38 0.58-0.76 0.66-1.22v-0.01l0.01-0.01 0.01-0.02c0.18-0.43 0.34-0.88 0.41-1.34v-0.03c0.09-0.47 0.13-0.97 0.13-1.49v-28.72c0-0.4 0.33-0.73 0.73-0.73h6c0.58 0 1.09 0.07 1.54 0.21 0.48 0.15 0.89 0.39 1.2 0.7 0.68 0.67 0.88 1.67 0.9 2.59l0.01 0.09v0.05 0.02 97.19c0 0.56-0.07 1.07-0.21 1.51l-0.01 0.03v0.02l-0.08 0.22-0.02 0.06-0.09 0.2-0.01 0.04-0.05 0.1-0.15 0.22-0.05 0.08-0.14 0.17-0.06 0.07c-0.15 0.16-0.33 0.3-0.53 0.42-0.17 0.1-0.36 0.19-0.55 0.26l-0.06 0.02c-0.16 0.05-0.34 0.1-0.53 0.14h-0.02-0.01-0.02l-0.09 0.01h-0.02-0.02c-0.22 0.03-0.49 0.05-0.76 0.06h-0.1v0.01zm-55.57-9.25c-1.66 0-3-1.34-3-3s1.34-3 3-3h31.12c1.66 0 3 1.34 3 3s-1.34 3-3 3h-31.12zm0-15.4c-1.66 0-3-1.34-3-3s1.34-3 3-3h31.12c1.66 0 3 1.34 3 3s-1.34 3-3 3h-31.12zm40.1-79.64-45.32-0.2v25.86h-0.01c0 0.46 0.06 0.86 0.17 1.2 0.03 0.06 0.04 0.1 0.07 0.15 0.09 0.23 0.22 0.44 0.4 0.61l0.03 0.03c0.06 0.06 0.11 0.1 0.17 0.15s0.13 0.09 0.2 0.14c0.39 0.23 0.92 0.34 1.58 0.34l40.1 0.25c0.91 0 1.57-0.21 1.98-0.63 0.42-0.43 0.63-1.1 0.63-2.02v-25.88zm-52.12 63.84h53.07c0.35 0 0.65 0.29 0.65 0.64v39.17c0 0.35-0.29 0.65-0.65 0.65h-53.07c-0.35 0-0.65-0.29-0.65-0.64v-39.17c0-0.36 0.3-0.65 0.65-0.65zm-32.23-73.23h104.26c4.91 0 8.79 3.86 8.79 8.79v105.21c0 4.95-3.9 8.88-8.79 8.88h-96.61l-0.24-0.25-16.04-16.03-1.05-0.7v-97.14c0-5.48 4.81-8.76 9.68-8.76z"/></svg>
