<?xml version="1.0" encoding="iso-8859-1"?>
<!-- Generator: Adobe Illustrator 19.0.0, SVG Export Plug-In . SVG Version: 6.00 Build 0)  -->
<svg version="1.1" id="Layer_1" xmlns="http://www.w3.org/2000/svg" xmlns:xlink="http://www.w3.org/1999/xlink" x="0px" y="0px"
	 viewBox="0 170 503.999 150" style="enable-background:new 0 0 400 200;" xml:space="preserve">
<g>
	<g>
		<path d="M501.302,203.669c-2.932-4.312-7.808-6.892-13.032-6.892c-3.172,0-6.232,1.032-8.856,2.82
			c-15.98,10.88-37.248,16.948-59.904,16.948H84.322c-22.568,0-43.776-6.032-59.732-16.84c-2.616-1.76-5.672-2.74-8.816-2.74
			c-5.248,0-10.124,2.564-13.056,6.904c-2.36,3.476-3.224,7.66-2.432,11.792c0.796,4.128,3.032,7.708,6.516,10.072
			c20.756,14.06,48.252,21.852,75.824,22.108v6.932c-7.876,4.436-15.632,13.904-15.632,24.876c0,15.2,12.432,27.572,27.636,27.572
			c15.2,0,27.48-12.372,27.48-27.572c0-10.972-7.972-20.436-15.848-24.876v-6.716H397.75v6.376
			c-7.876,4.44-15.652,13.904-15.652,24.876c0,15.204,12.416,27.572,27.62,27.572c15.204,0,27.5-12.368,27.5-27.572
			c0-10.972-7.952-20.432-15.832-24.876v-6.616c27.576-0.368,55.028-8.208,75.668-22.26c3.476-2.368,5.872-5.952,6.656-10.084
			C504.494,211.345,503.674,207.149,501.302,203.669z"/>
	</g>
</g>
<g>
</g>
<g>
</g>
<g>
</g>
<g>
</g>
<g>
</g>
<g>
</g>
<g>
</g>
<g>
</g>
<g>
</g>
<g>
</g>
<g>
</g>
<g>
</g>
<g>
</g>
<g>
</g>
<g>
</g>
</svg>
