<svg version="1.0" xmlns="http://www.w3.org/2000/svg"
 width="732.000000pt" height="1280.000000pt" viewBox="0 0 732.000000 1280.000000"
 preserveAspectRatio="xMidYMid meet">
<g transform="translate(0.000000,1280.000000) scale(0.100000,-0.100000)"
fill="#FFFFFF" stroke="none">
<path d="M3465 12688 c-255 -218 -603 -584 -851 -893 -630 -784 -1123 -1737
-1403 -2710 -40 -139 -105 -394 -121 -470 -82 -404 -111 -573 -140 -835 -75
-663 -75 -1293 -1 -2010 25 -233 92 -678 132 -865 5 -27 12 -60 15 -72 3 -18
-3 -23 -49 -33 -272 -62 -531 -264 -700 -547 -174 -290 -272 -633 -329 -1148
-17 -157 -17 -787 0 -995 49 -588 137 -1141 299 -1867 l38 -173 41 0 c23 0 62
3 88 6 l46 7 0 58 c0 32 4 127 10 211 5 84 15 227 20 318 30 464 85 950 156
1375 124 746 320 1256 528 1375 58 34 142 41 199 16 28 -11 35 -23 60 -97 133
-392 372 -993 547 -1371 l13 -28 676 -2 676 -3 3 -967 2 -968 240 0 240 0 0
970 0 970 677 2 677 3 74 165 c158 354 353 846 468 1184 45 133 45 133 83 145
21 6 63 11 92 11 307 -1 575 -752 718 -2010 35 -306 54 -517 71 -770 5 -91 15
-234 20 -318 6 -84 10 -179 10 -211 l0 -58 46 -7 c26 -3 65 -6 88 -6 l41 0 38
173 c162 726 250 1279 299 1867 17 208 17 838 0 995 -57 515 -155 858 -329
1148 -170 285 -433 489 -705 548 -32 7 -55 15 -53 19 6 10 71 367 94 520 38
245 59 438 93 820 17 197 17 1045 0 1240 -80 903 -223 1554 -504 2300 -269
715 -704 1479 -1182 2075 -250 313 -657 738 -891 933 l-110 92 -60 -1 -60 0
-130 -111z"/>
</g>
</svg>
