<?xml version="1.0" encoding="UTF-8"?>
<svg version="1.0" viewBox="0 0 12 7" xmlns="http://www.w3.org/2000/svg">
<g>
<g transform="translate(-199.4 -536.47)">
<path d="m206.05 542.89c-1.717-0.09085-3.0587-1.615-3.5971-3.191-0.32619-0.92504-0.14703-2.3128 0.93966-2.5726 1.5744-0.2674 2.8809 1.07 3.6131 2.3499 0.5216 0.94927 0.80997 2.4442-0.16802 3.1966-0.23221 0.15573-0.51292 0.21819-0.78758 0.21714zm2.7352-5.4033c-1.9344-1.1749-4.378-1.2664-6.4963-0.6089-1.3418 0.46915-2.8764 1.4671-2.8891 3.0914-9.3e-4 1.5915 1.48 2.5842 2.7905 3.0571 2.0747 0.67865 4.4685 0.61897 6.4055-0.4629 1.0965-0.58336 2.0683-1.7913 1.7388-3.1303-0.18121-0.86097-0.84075-1.5052-1.5493-1.9464z"/>
</g>
</g>
</svg>
